<mxfile host="app.diagrams.net" modified="2022-12-08T14:02:32.272Z" agent="5.0 (Windows NT 10.0; Win64; x64) AppleWebKit/537.36 (KHTML, like Gecko) Chrome/108.0.0.0 Safari/537.36" etag="nHnnxfsZ0BrWbgVO3Cbi" version="20.6.0" type="github">
  <diagram id="S4qpf8sp_IDscNvxWbhD" name="Side-1">
    <mxGraphModel dx="2249" dy="1969" grid="0" gridSize="10" guides="1" tooltips="1" connect="1" arrows="1" fold="1" page="1" pageScale="1" pageWidth="827" pageHeight="1169" math="0" shadow="0">
      <root>
        <mxCell id="0" />
        <mxCell id="1" parent="0" />
        <mxCell id="NafJJk9mpEiXWzSGuu7h-9" style="edgeStyle=orthogonalEdgeStyle;rounded=0;orthogonalLoop=1;jettySize=auto;html=1;exitX=0.5;exitY=0;exitDx=0;exitDy=0;endArrow=none;endFill=0;" parent="1" source="NafJJk9mpEiXWzSGuu7h-1" target="NafJJk9mpEiXWzSGuu7h-8" edge="1">
          <mxGeometry relative="1" as="geometry" />
        </mxCell>
        <mxCell id="NafJJk9mpEiXWzSGuu7h-26" style="edgeStyle=orthogonalEdgeStyle;rounded=0;orthogonalLoop=1;jettySize=auto;html=1;exitX=1;exitY=0.5;exitDx=0;exitDy=0;endArrow=none;endFill=0;" parent="1" source="NafJJk9mpEiXWzSGuu7h-1" target="NafJJk9mpEiXWzSGuu7h-22" edge="1">
          <mxGeometry relative="1" as="geometry" />
        </mxCell>
        <mxCell id="Q9bZLMeQLmCKx6aBFnSO-2" style="edgeStyle=orthogonalEdgeStyle;rounded=0;orthogonalLoop=1;jettySize=auto;html=1;exitX=0.5;exitY=1;exitDx=0;exitDy=0;entryX=0.5;entryY=0;entryDx=0;entryDy=0;endArrow=none;endFill=0;" edge="1" parent="1" source="NafJJk9mpEiXWzSGuu7h-1" target="Q9bZLMeQLmCKx6aBFnSO-1">
          <mxGeometry relative="1" as="geometry" />
        </mxCell>
        <mxCell id="NafJJk9mpEiXWzSGuu7h-1" value="Car" style="whiteSpace=wrap;html=1;align=center;" parent="1" vertex="1">
          <mxGeometry x="109" y="197" width="100" height="40" as="geometry" />
        </mxCell>
        <mxCell id="NafJJk9mpEiXWzSGuu7h-10" style="edgeStyle=orthogonalEdgeStyle;rounded=0;orthogonalLoop=1;jettySize=auto;html=1;exitX=1;exitY=0.5;exitDx=0;exitDy=0;endArrow=none;endFill=0;" parent="1" source="NafJJk9mpEiXWzSGuu7h-2" target="NafJJk9mpEiXWzSGuu7h-8" edge="1">
          <mxGeometry relative="1" as="geometry" />
        </mxCell>
        <mxCell id="NafJJk9mpEiXWzSGuu7h-37" style="edgeStyle=orthogonalEdgeStyle;rounded=0;orthogonalLoop=1;jettySize=auto;html=1;exitX=0.5;exitY=0;exitDx=0;exitDy=0;endArrow=none;endFill=0;" parent="1" source="NafJJk9mpEiXWzSGuu7h-2" target="NafJJk9mpEiXWzSGuu7h-36" edge="1">
          <mxGeometry relative="1" as="geometry" />
        </mxCell>
        <mxCell id="NafJJk9mpEiXWzSGuu7h-2" value="FuelType" style="whiteSpace=wrap;html=1;align=center;" parent="1" vertex="1">
          <mxGeometry x="-26" y="54" width="100" height="40" as="geometry" />
        </mxCell>
        <mxCell id="NafJJk9mpEiXWzSGuu7h-20" style="edgeStyle=orthogonalEdgeStyle;rounded=0;orthogonalLoop=1;jettySize=auto;html=1;exitX=1;exitY=0.5;exitDx=0;exitDy=0;endArrow=none;endFill=0;" parent="1" source="NafJJk9mpEiXWzSGuu7h-3" target="NafJJk9mpEiXWzSGuu7h-2" edge="1">
          <mxGeometry relative="1" as="geometry" />
        </mxCell>
        <mxCell id="NafJJk9mpEiXWzSGuu7h-3" value="&lt;b&gt;FuelName&lt;/b&gt;" style="ellipse;whiteSpace=wrap;html=1;align=center;fontStyle=4;" parent="1" vertex="1">
          <mxGeometry x="-163" y="54" width="100" height="40" as="geometry" />
        </mxCell>
        <mxCell id="NafJJk9mpEiXWzSGuu7h-8" value="Has" style="shape=rhombus;double=1;perimeter=rhombusPerimeter;whiteSpace=wrap;html=1;align=center;" parent="1" vertex="1">
          <mxGeometry x="99" y="109" width="120" height="60" as="geometry" />
        </mxCell>
        <mxCell id="NafJJk9mpEiXWzSGuu7h-11" value="1" style="text;html=1;align=center;verticalAlign=middle;resizable=0;points=[];autosize=1;strokeColor=none;fillColor=none;" parent="1" vertex="1">
          <mxGeometry x="129" y="94" width="25" height="26" as="geometry" />
        </mxCell>
        <mxCell id="NafJJk9mpEiXWzSGuu7h-12" value="0..*" style="text;html=1;align=center;verticalAlign=middle;resizable=0;points=[];autosize=1;strokeColor=none;fillColor=none;" parent="1" vertex="1">
          <mxGeometry x="160" y="162" width="36" height="26" as="geometry" />
        </mxCell>
        <mxCell id="NafJJk9mpEiXWzSGuu7h-24" style="edgeStyle=orthogonalEdgeStyle;rounded=0;orthogonalLoop=1;jettySize=auto;html=1;exitX=1;exitY=0.5;exitDx=0;exitDy=0;endArrow=none;endFill=0;" parent="1" source="NafJJk9mpEiXWzSGuu7h-14" target="NafJJk9mpEiXWzSGuu7h-21" edge="1">
          <mxGeometry relative="1" as="geometry" />
        </mxCell>
        <mxCell id="NafJJk9mpEiXWzSGuu7h-56" style="edgeStyle=orthogonalEdgeStyle;rounded=0;orthogonalLoop=1;jettySize=auto;html=1;exitX=0.5;exitY=0;exitDx=0;exitDy=0;endArrow=none;endFill=0;" parent="1" source="NafJJk9mpEiXWzSGuu7h-14" target="NafJJk9mpEiXWzSGuu7h-48" edge="1">
          <mxGeometry relative="1" as="geometry" />
        </mxCell>
        <mxCell id="NafJJk9mpEiXWzSGuu7h-14" value="Model" style="whiteSpace=wrap;html=1;align=center;" parent="1" vertex="1">
          <mxGeometry x="-187" y="197" width="100" height="40" as="geometry" />
        </mxCell>
        <mxCell id="NafJJk9mpEiXWzSGuu7h-51" style="edgeStyle=orthogonalEdgeStyle;rounded=0;orthogonalLoop=1;jettySize=auto;html=1;exitX=0.5;exitY=0;exitDx=0;exitDy=0;endArrow=none;endFill=0;" parent="1" source="NafJJk9mpEiXWzSGuu7h-15" target="NafJJk9mpEiXWzSGuu7h-50" edge="1">
          <mxGeometry relative="1" as="geometry" />
        </mxCell>
        <mxCell id="NafJJk9mpEiXWzSGuu7h-15" value="Brand" style="whiteSpace=wrap;html=1;align=center;" parent="1" vertex="1">
          <mxGeometry x="393" y="197" width="100" height="40" as="geometry" />
        </mxCell>
        <mxCell id="NafJJk9mpEiXWzSGuu7h-18" style="edgeStyle=orthogonalEdgeStyle;rounded=0;orthogonalLoop=1;jettySize=auto;html=1;exitX=0.5;exitY=0;exitDx=0;exitDy=0;endArrow=none;endFill=0;" parent="1" source="NafJJk9mpEiXWzSGuu7h-17" target="NafJJk9mpEiXWzSGuu7h-1" edge="1">
          <mxGeometry relative="1" as="geometry" />
        </mxCell>
        <mxCell id="NafJJk9mpEiXWzSGuu7h-17" value="&lt;b&gt;CarId&lt;/b&gt;" style="ellipse;whiteSpace=wrap;html=1;align=center;fontStyle=4;" parent="1" vertex="1">
          <mxGeometry x="178" y="371" width="100" height="40" as="geometry" />
        </mxCell>
        <mxCell id="NafJJk9mpEiXWzSGuu7h-25" style="edgeStyle=orthogonalEdgeStyle;rounded=0;orthogonalLoop=1;jettySize=auto;html=1;exitX=1;exitY=0.5;exitDx=0;exitDy=0;endArrow=none;endFill=0;" parent="1" source="NafJJk9mpEiXWzSGuu7h-21" target="NafJJk9mpEiXWzSGuu7h-1" edge="1">
          <mxGeometry relative="1" as="geometry" />
        </mxCell>
        <mxCell id="NafJJk9mpEiXWzSGuu7h-21" value="Has" style="shape=rhombus;double=1;perimeter=rhombusPerimeter;whiteSpace=wrap;html=1;align=center;" parent="1" vertex="1">
          <mxGeometry x="-43" y="187" width="120" height="60" as="geometry" />
        </mxCell>
        <mxCell id="NafJJk9mpEiXWzSGuu7h-27" style="edgeStyle=orthogonalEdgeStyle;rounded=0;orthogonalLoop=1;jettySize=auto;html=1;exitX=1;exitY=0.5;exitDx=0;exitDy=0;endArrow=none;endFill=0;" parent="1" source="NafJJk9mpEiXWzSGuu7h-22" target="NafJJk9mpEiXWzSGuu7h-15" edge="1">
          <mxGeometry relative="1" as="geometry" />
        </mxCell>
        <mxCell id="NafJJk9mpEiXWzSGuu7h-22" value="Has" style="shape=rhombus;double=1;perimeter=rhombusPerimeter;whiteSpace=wrap;html=1;align=center;" parent="1" vertex="1">
          <mxGeometry x="243" y="187" width="120" height="60" as="geometry" />
        </mxCell>
        <mxCell id="NafJJk9mpEiXWzSGuu7h-29" style="edgeStyle=orthogonalEdgeStyle;rounded=0;orthogonalLoop=1;jettySize=auto;html=1;exitX=0.5;exitY=0;exitDx=0;exitDy=0;endArrow=none;endFill=0;" parent="1" source="NafJJk9mpEiXWzSGuu7h-28" target="NafJJk9mpEiXWzSGuu7h-1" edge="1">
          <mxGeometry relative="1" as="geometry">
            <Array as="points">
              <mxPoint x="96" y="304" />
              <mxPoint x="159" y="304" />
            </Array>
          </mxGeometry>
        </mxCell>
        <mxCell id="NafJJk9mpEiXWzSGuu7h-28" value="ReleaseYear" style="ellipse;whiteSpace=wrap;html=1;align=center;" parent="1" vertex="1">
          <mxGeometry x="46" y="371" width="100" height="40" as="geometry" />
        </mxCell>
        <mxCell id="NafJJk9mpEiXWzSGuu7h-32" style="edgeStyle=orthogonalEdgeStyle;rounded=0;orthogonalLoop=1;jettySize=auto;html=1;endArrow=none;endFill=0;exitX=1;exitY=0.5;exitDx=0;exitDy=0;" parent="1" source="NafJJk9mpEiXWzSGuu7h-31" target="NafJJk9mpEiXWzSGuu7h-1" edge="1">
          <mxGeometry relative="1" as="geometry">
            <Array as="points">
              <mxPoint x="159" y="450" />
            </Array>
          </mxGeometry>
        </mxCell>
        <mxCell id="NafJJk9mpEiXWzSGuu7h-31" value="FuelUsagePerKM" style="ellipse;whiteSpace=wrap;html=1;align=center;" parent="1" vertex="1">
          <mxGeometry x="23" y="430" width="110" height="40" as="geometry" />
        </mxCell>
        <mxCell id="NafJJk9mpEiXWzSGuu7h-34" style="edgeStyle=orthogonalEdgeStyle;rounded=0;orthogonalLoop=1;jettySize=auto;html=1;exitX=0;exitY=0.5;exitDx=0;exitDy=0;endArrow=none;endFill=0;" parent="1" source="NafJJk9mpEiXWzSGuu7h-33" target="NafJJk9mpEiXWzSGuu7h-1" edge="1">
          <mxGeometry relative="1" as="geometry">
            <Array as="points">
              <mxPoint x="159" y="450" />
            </Array>
          </mxGeometry>
        </mxCell>
        <mxCell id="NafJJk9mpEiXWzSGuu7h-33" value="Price" style="ellipse;whiteSpace=wrap;html=1;align=center;" parent="1" vertex="1">
          <mxGeometry x="189" y="430" width="100" height="40" as="geometry" />
        </mxCell>
        <mxCell id="NafJJk9mpEiXWzSGuu7h-43" style="edgeStyle=orthogonalEdgeStyle;rounded=0;orthogonalLoop=1;jettySize=auto;html=1;exitX=0.5;exitY=0;exitDx=0;exitDy=0;endArrow=none;endFill=0;" parent="1" source="NafJJk9mpEiXWzSGuu7h-35" target="NafJJk9mpEiXWzSGuu7h-42" edge="1">
          <mxGeometry relative="1" as="geometry">
            <Array as="points">
              <mxPoint x="24" y="-210" />
            </Array>
          </mxGeometry>
        </mxCell>
        <mxCell id="NafJJk9mpEiXWzSGuu7h-35" value="FuelPrices" style="whiteSpace=wrap;html=1;align=center;" parent="1" vertex="1">
          <mxGeometry x="-26" y="-94" width="100" height="40" as="geometry" />
        </mxCell>
        <mxCell id="NafJJk9mpEiXWzSGuu7h-38" style="edgeStyle=orthogonalEdgeStyle;rounded=0;orthogonalLoop=1;jettySize=auto;html=1;exitX=0.5;exitY=0;exitDx=0;exitDy=0;endArrow=none;endFill=0;" parent="1" source="NafJJk9mpEiXWzSGuu7h-36" target="NafJJk9mpEiXWzSGuu7h-35" edge="1">
          <mxGeometry relative="1" as="geometry" />
        </mxCell>
        <mxCell id="NafJJk9mpEiXWzSGuu7h-36" value="Has" style="shape=rhombus;double=1;perimeter=rhombusPerimeter;whiteSpace=wrap;html=1;align=center;" parent="1" vertex="1">
          <mxGeometry x="-36" y="-30" width="120" height="60" as="geometry" />
        </mxCell>
        <mxCell id="NafJJk9mpEiXWzSGuu7h-39" value="1" style="text;html=1;align=center;verticalAlign=middle;resizable=0;points=[];autosize=1;strokeColor=none;fillColor=none;" parent="1" vertex="1">
          <mxGeometry x="21" y="25" width="25" height="26" as="geometry" />
        </mxCell>
        <mxCell id="NafJJk9mpEiXWzSGuu7h-40" value="0..*" style="text;html=1;align=center;verticalAlign=middle;resizable=0;points=[];autosize=1;strokeColor=none;fillColor=none;" parent="1" vertex="1">
          <mxGeometry x="-13" y="-51" width="36" height="26" as="geometry" />
        </mxCell>
        <mxCell id="NafJJk9mpEiXWzSGuu7h-42" value="Date" style="ellipse;whiteSpace=wrap;html=1;align=center;" parent="1" vertex="1">
          <mxGeometry x="-136" y="-230" width="100" height="40" as="geometry" />
        </mxCell>
        <mxCell id="NafJJk9mpEiXWzSGuu7h-45" style="edgeStyle=orthogonalEdgeStyle;rounded=0;orthogonalLoop=1;jettySize=auto;html=1;exitX=1;exitY=0.5;exitDx=0;exitDy=0;endArrow=none;endFill=0;" parent="1" source="NafJJk9mpEiXWzSGuu7h-44" target="NafJJk9mpEiXWzSGuu7h-35" edge="1">
          <mxGeometry relative="1" as="geometry" />
        </mxCell>
        <mxCell id="NafJJk9mpEiXWzSGuu7h-44" value="Price" style="ellipse;whiteSpace=wrap;html=1;align=center;" parent="1" vertex="1">
          <mxGeometry x="-136" y="-151" width="100" height="40" as="geometry" />
        </mxCell>
        <mxCell id="NafJJk9mpEiXWzSGuu7h-47" style="edgeStyle=orthogonalEdgeStyle;rounded=0;orthogonalLoop=1;jettySize=auto;html=1;exitX=0;exitY=0.5;exitDx=0;exitDy=0;endArrow=none;endFill=0;" parent="1" source="NafJJk9mpEiXWzSGuu7h-46" target="NafJJk9mpEiXWzSGuu7h-35" edge="1">
          <mxGeometry relative="1" as="geometry" />
        </mxCell>
        <mxCell id="NafJJk9mpEiXWzSGuu7h-46" value="&lt;b&gt;&lt;u&gt;FPId&lt;/u&gt;&lt;/b&gt;" style="ellipse;whiteSpace=wrap;html=1;align=center;" parent="1" vertex="1">
          <mxGeometry x="74" y="-151" width="100" height="40" as="geometry" />
        </mxCell>
        <mxCell id="NafJJk9mpEiXWzSGuu7h-48" value="&lt;b&gt;&lt;u&gt;MName&lt;/u&gt;&lt;/b&gt;" style="ellipse;whiteSpace=wrap;html=1;align=center;" parent="1" vertex="1">
          <mxGeometry x="-187" y="138" width="100" height="40" as="geometry" />
        </mxCell>
        <mxCell id="NafJJk9mpEiXWzSGuu7h-50" value="&lt;b&gt;&lt;u&gt;BName&lt;/u&gt;&lt;/b&gt;" style="ellipse;whiteSpace=wrap;html=1;align=center;" parent="1" vertex="1">
          <mxGeometry x="393" y="138" width="100" height="40" as="geometry" />
        </mxCell>
        <mxCell id="NafJJk9mpEiXWzSGuu7h-52" value="1" style="text;html=1;align=center;verticalAlign=middle;resizable=0;points=[];autosize=1;strokeColor=none;fillColor=none;" parent="1" vertex="1">
          <mxGeometry x="-56" y="191" width="25" height="26" as="geometry" />
        </mxCell>
        <mxCell id="NafJJk9mpEiXWzSGuu7h-53" value="0..*" style="text;html=1;align=center;verticalAlign=middle;resizable=0;points=[];autosize=1;strokeColor=none;fillColor=none;" parent="1" vertex="1">
          <mxGeometry x="61" y="190" width="36" height="26" as="geometry" />
        </mxCell>
        <mxCell id="NafJJk9mpEiXWzSGuu7h-54" value="0..*" style="text;html=1;align=center;verticalAlign=middle;resizable=0;points=[];autosize=1;strokeColor=none;fillColor=none;" parent="1" vertex="1">
          <mxGeometry x="219" y="193" width="36" height="26" as="geometry" />
        </mxCell>
        <mxCell id="NafJJk9mpEiXWzSGuu7h-55" value="1" style="text;html=1;align=center;verticalAlign=middle;resizable=0;points=[];autosize=1;strokeColor=none;fillColor=none;" parent="1" vertex="1">
          <mxGeometry x="350" y="193" width="25" height="26" as="geometry" />
        </mxCell>
        <mxCell id="Q9bZLMeQLmCKx6aBFnSO-1" value="Variant" style="ellipse;whiteSpace=wrap;html=1;align=center;" vertex="1" parent="1">
          <mxGeometry x="109" y="490" width="100" height="40" as="geometry" />
        </mxCell>
      </root>
    </mxGraphModel>
  </diagram>
</mxfile>
